# xmcd CD database file generated by LOLA_Freedb v0.9beta0
# 
# Track frame offsets:
#      150
#      20672
#      40532
#      56827
#      72123
#      93725
#      113279
#      130844
#      150295
#      166691
# 
# Disc length: 2501 seconds
# 
# Revision: 0 
# Processed by: cddbd v1.5.2PL0 Copyright (c) Steve Scherf et al.
# Submitted via: LOLA_Freedb v0.9beta0
# 
DISCID=7009c30a
DTITLE=Wolle Kriwanek - Schw‰bische Trilogie
DYEAR=1976
DGENRE=
TTITLE0=Bad-Wanna Blues
TTITLE1=Denn i mog di
TTITLE2=Mei Frau der Drache
TTITLE3=Steppenwolf
TTITLE4=Morgenstund-Blues
TTITLE5=Lilla Tilla
TTITLE6=Kopf oder Zahl
TTITLE7=Oma Bella Napoli
TTITLE8=Du l‰ﬂt die Puppen tanzen
TTITLE9=Hier kommt Buffalo
EXTD=
EXTT0=
EXTT1=
EXTT2=
EXTT3=
EXTT4=
EXTT5=
EXTT6=
EXTT7=
EXTT8=
EXTT9=
PLAYORDER=
